<svg xmlns="http://www.w3.org/2000/svg" width="120" height="120" viewBox="0 0 120 120" fill="none">
  <!-- Top-left finder pattern -->
  <rect x="10" y="10" width="28" height="28" stroke="rgba(201,169,110,0.32)" stroke-width="1.5" fill="none"/>
  <rect x="15" y="15" width="18" height="18" stroke="rgba(201,169,110,0.32)" stroke-width="1.5" fill="none"/>
  <rect x="20" y="20" width="8" height="8" fill="rgba(201,169,110,0.18)"/>

  <!-- Top-right finder pattern -->
  <rect x="82" y="10" width="28" height="28" stroke="rgba(201,169,110,0.32)" stroke-width="1.5" fill="none"/>
  <rect x="87" y="15" width="18" height="18" stroke="rgba(201,169,110,0.32)" stroke-width="1.5" fill="none"/>
  <rect x="92" y="20" width="8" height="8" fill="rgba(201,169,110,0.18)"/>

  <!-- Bottom-left finder pattern -->
  <rect x="10" y="82" width="28" height="28" stroke="rgba(201,169,110,0.32)" stroke-width="1.5" fill="none"/>
  <rect x="15" y="87" width="18" height="18" stroke="rgba(201,169,110,0.32)" stroke-width="1.5" fill="none"/>
  <rect x="20" y="92" width="8" height="8" fill="rgba(201,169,110,0.18)"/>

  <!-- Timing / data scatter (centre area) -->
  <rect x="44" y="44" width="4" height="4" fill="rgba(201,169,110,0.13)"/>
  <rect x="52" y="44" width="4" height="4" fill="rgba(201,169,110,0.10)"/>
  <rect x="60" y="44" width="4" height="4" fill="rgba(201,169,110,0.13)"/>
  <rect x="68" y="44" width="4" height="4" fill="rgba(201,169,110,0.10)"/>
  <rect x="76" y="44" width="4" height="4" fill="rgba(201,169,110,0.13)"/>

  <rect x="44" y="52" width="4" height="4" fill="rgba(201,169,110,0.10)"/>
  <rect x="60" y="52" width="4" height="4" fill="rgba(201,169,110,0.13)"/>
  <rect x="76" y="52" width="4" height="4" fill="rgba(201,169,110,0.10)"/>

  <rect x="44" y="60" width="4" height="4" fill="rgba(201,169,110,0.13)"/>
  <rect x="52" y="60" width="4" height="4" fill="rgba(201,169,110,0.10)"/>
  <rect x="68" y="60" width="4" height="4" fill="rgba(201,169,110,0.13)"/>
  <rect x="76" y="60" width="4" height="4" fill="rgba(201,169,110,0.10)"/>

  <rect x="52" y="68" width="4" height="4" fill="rgba(201,169,110,0.13)"/>
  <rect x="60" y="68" width="4" height="4" fill="rgba(201,169,110,0.10)"/>
  <rect x="76" y="68" width="4" height="4" fill="rgba(201,169,110,0.13)"/>

  <rect x="44" y="76" width="4" height="4" fill="rgba(201,169,110,0.10)"/>
  <rect x="60" y="76" width="4" height="4" fill="rgba(201,169,110,0.13)"/>
  <rect x="68" y="76" width="4" height="4" fill="rgba(201,169,110,0.10)"/>
  <rect x="76" y="76" width="4" height="4" fill="rgba(201,169,110,0.13)"/>
</svg>
